<svg width="81" height="28" viewBox="0 0 81 28" fill="none" xmlns="http://www.w3.org/2000/svg">
<path d="M5.68566 18.0582L0.599877 24.0019V20.4813H0V18.0582H5.68566Z" fill="white"/>
<path d="M10.6309 18.0582V20.4813H10.0486V24.0546H6.8385V18.0582H10.6309Z" fill="white"/>
<path d="M5.26438 25.635H0.599976V27.6221H5.26438V25.635Z" fill="white"/>
<path d="M10.0486 25.635H6.8385V27.6221H10.0486V25.635Z" fill="white"/>
<path d="M2.60474 24.0547L5.2676 20.9526V24.0547H2.60474Z" fill="white"/>
<path d="M9.07172 16.8115L6.23328 17.7334H4.42487L1.58643 16.8115L1.86149 15L4.81406 16.99L4.94574 16.7354H5.72119L5.84994 16.9871L8.79665 15L9.07172 16.8115Z" fill="white"/>
<path d="M22.6124 23.4045C22.5966 22.2901 23.0282 21.2158 23.8107 20.4222C24.5932 19.6285 25.6612 19.1818 26.7756 19.1819C27.926 19.1277 29.0519 19.5256 29.9128 20.2906L29.0047 21.3758C28.3881 20.7926 27.565 20.4786 26.7167 20.5029C25.9845 20.5336 25.2945 20.8542 24.799 21.394C24.3034 21.9339 24.0429 22.6488 24.0748 23.381C24.032 24.138 24.3066 24.8787 24.8326 25.4249C25.3585 25.971 26.0883 26.2733 26.8464 26.259C27.5512 26.2676 28.2407 26.0529 28.816 25.6456V24.1123H26.7284V22.9091H30.2077V26.3415C29.2619 27.1627 28.0517 27.6151 26.7992 27.6154C25.6728 27.6558 24.5805 27.2243 23.7857 26.425C22.9909 25.6256 22.5656 24.5309 22.6124 23.4045Z" fill="white"/>
<path d="M33.321 19.2999H34.7599V27.4385H33.321V19.2999Z" fill="white"/>
<path d="M38.0963 19.2999H44.1702V20.6091H39.5352V22.8384H43.6512V24.1359H39.5352V27.4385H38.0963V19.2999Z" fill="white"/>
<path d="M48.9234 20.6327H46.3287V19.2999H52.9569V20.6327H50.3623V27.4385H48.9234V20.6327Z" fill="white"/>
<path d="M55.6354 19.2999H61.6857V20.5855H57.0742V22.7205H61.1667V24.0061H57.0742V26.2H61.7918V27.4385H55.6354V19.2999Z" fill="white"/>
<path d="M64.6218 19.2999H68.2544C69.117 19.251 69.9642 19.5433 70.6131 20.1138C71.0608 20.5877 71.3025 21.2196 71.2854 21.8712C71.3235 23.0557 70.5095 24.0981 69.3512 24.3482L71.5567 27.4385H69.8583L67.8534 24.5959H66.0489V27.4385H64.6218V19.2999ZM68.16 23.3456C69.1861 23.3456 69.8347 22.8149 69.8347 21.9774C69.8347 21.1046 69.2097 20.621 68.1482 20.621H66.0489V23.3574L68.16 23.3456Z" fill="white"/>
<path d="M73.6666 26.2589L74.5276 25.2327C75.2218 25.9028 76.1457 26.2825 77.1104 26.2943C77.995 26.2943 78.5611 25.8696 78.5611 25.2681C78.5611 24.6901 78.2309 24.3717 76.7213 24.0178C74.9875 23.5932 74.0086 23.086 74.0086 21.5762C74.0432 20.8858 74.362 20.2406 74.8893 19.7937C75.4166 19.3467 76.1054 19.1381 76.792 19.2172C77.8694 19.1961 78.919 19.56 79.7523 20.2434L78.9857 21.3285C78.3583 20.814 77.5793 20.5198 76.7684 20.4911C75.9311 20.4911 75.4357 20.9275 75.4357 21.4583C75.4357 22.0834 75.8131 22.3665 77.3817 22.7439C78.9503 23.1214 80 23.7819 80 25.103C80 26.6363 78.8206 27.5445 77.0869 27.5445C75.8258 27.5605 74.605 27.1015 73.6666 26.2589Z" fill="white"/>
<path d="M17.5283 25.6456H13.4477L13.1764 24.6313L17.6817 19.2999H18.8611V24.4779H20.0405V25.6574H18.8611V27.4385H17.5283V25.6456ZM17.5283 24.4661V21.2697L14.8629 24.4779L17.5283 24.4661Z" fill="white"/>
<path d="M29.2836 3.46C30.1903 3.46 30.8603 3.59667 31.2936 3.87C31.7336 4.14333 31.9536 4.57333 31.9536 5.16C31.9536 5.73333 31.8303 6.21667 31.5836 6.61C31.3436 6.99667 30.9936 7.3 30.5336 7.52C30.0803 7.73333 29.537 7.84 28.9036 7.84H28.3836L27.8836 11H26.9436L28.1336 3.46H29.2836ZM28.5136 7H28.8636C29.5836 7 30.127 6.86333 30.4936 6.59C30.867 6.31 31.0536 5.88667 31.0536 5.32C31.0536 4.98 30.9036 4.72667 30.6036 4.56C30.3036 4.38667 29.8336 4.3 29.1936 4.3H28.9436L28.5136 7ZM31.7949 9.08C31.7949 8.58 31.9282 8.10667 32.1949 7.66C32.4615 7.20667 32.8215 6.84667 33.2749 6.58C33.7282 6.31333 34.2082 6.18 34.7149 6.18C35.3349 6.18 35.8449 6.37333 36.2449 6.76C36.6515 7.14667 36.8549 7.64667 36.8549 8.26C36.8549 8.76667 36.7215 9.24333 36.4549 9.69C36.1882 10.1367 35.8249 10.4933 35.3649 10.76C34.9115 11.0267 34.4315 11.16 33.9249 11.16C33.3115 11.16 32.8015 10.97 32.3949 10.59C31.9949 10.2033 31.7949 9.7 31.7949 9.08ZM34.5749 7.04C34.2615 7.04 33.9582 7.13 33.6649 7.31C33.3715 7.49 33.1382 7.72667 32.9649 8.02C32.7915 8.31333 32.7049 8.61667 32.7049 8.93C32.7049 9.31667 32.8315 9.64333 33.0849 9.91C33.3449 10.17 33.6715 10.3 34.0649 10.3C34.3715 10.3 34.6682 10.2167 34.9549 10.05C35.2482 9.88333 35.4849 9.65 35.6649 9.35C35.8515 9.04333 35.9449 8.73 35.9449 8.41C35.9449 8.01 35.8149 7.68333 35.5549 7.43C35.3015 7.17 34.9749 7.04 34.5749 7.04ZM41.5353 6.06L42.3953 9.3L44.2253 6.32H45.2453L42.0953 11.16L41.2253 8.03L39.3453 11.16L37.7353 6.32H38.7553L39.6453 9.3L41.5353 6.06ZM49.913 8.81H46.343C46.3297 8.95667 46.323 9.05667 46.323 9.11C46.323 9.47 46.4297 9.77 46.643 10.01C46.863 10.2433 47.1497 10.36 47.503 10.36C47.843 10.36 48.133 10.28 48.373 10.12C48.6197 9.95333 48.8463 9.73 49.053 9.45L49.743 9.88C49.4563 10.2867 49.103 10.6033 48.683 10.83C48.263 11.05 47.823 11.16 47.363 11.16C46.7763 11.16 46.303 10.9833 45.943 10.63C45.5897 10.27 45.413 9.78333 45.413 9.17C45.413 8.70333 45.513 8.24 45.713 7.78C45.913 7.32 46.2197 6.94 46.633 6.64C47.0463 6.33333 47.5463 6.18 48.133 6.18C48.7197 6.18 49.173 6.35 49.493 6.69C49.8197 7.02333 49.983 7.49667 49.983 8.11C49.983 8.18333 49.9763 8.27667 49.963 8.39C49.9563 8.50333 49.9397 8.64333 49.913 8.81ZM49.113 8.13C49.113 7.78333 49.0197 7.50333 48.833 7.29C48.6463 7.07 48.3697 6.96 48.003 6.96C47.663 6.96 47.3563 7.07 47.083 7.29C46.8097 7.51 46.613 7.79 46.493 8.13H49.113ZM54.0358 7.23C53.9558 7.15667 53.8725 7.10667 53.7858 7.08C53.7058 7.05333 53.6158 7.04 53.5158 7.04C53.1425 7.04 52.8425 7.17667 52.6158 7.45C52.3958 7.72333 52.2458 8.12 52.1658 8.64L51.7958 11H50.8958L51.6358 6.32H52.5358L52.4158 7.08H52.4458C52.5925 6.81333 52.7892 6.59667 53.0358 6.43C53.2892 6.26333 53.5658 6.18 53.8658 6.18C54.0125 6.18 54.1458 6.20333 54.2658 6.25C54.3925 6.29667 54.4958 6.35 54.5758 6.41L54.0358 7.23ZM59.1259 8.81H55.5559C55.5426 8.95667 55.5359 9.05667 55.5359 9.11C55.5359 9.47 55.6426 9.77 55.8559 10.01C56.0759 10.2433 56.3626 10.36 56.7159 10.36C57.0559 10.36 57.3459 10.28 57.5859 10.12C57.8326 9.95333 58.0592 9.73 58.2659 9.45L58.9559 9.88C58.6692 10.2867 58.3159 10.6033 57.8959 10.83C57.4759 11.05 57.0359 11.16 56.5759 11.16C55.9892 11.16 55.5159 10.9833 55.1559 10.63C54.8026 10.27 54.6259 9.78333 54.6259 9.17C54.6259 8.70333 54.7259 8.24 54.9259 7.78C55.1259 7.32 55.4326 6.94 55.8459 6.64C56.2592 6.33333 56.7592 6.18 57.3459 6.18C57.9326 6.18 58.3859 6.35 58.7059 6.69C59.0326 7.02333 59.1959 7.49667 59.1959 8.11C59.1959 8.18333 59.1892 8.27667 59.1759 8.39C59.1692 8.50333 59.1526 8.64333 59.1259 8.81ZM58.3259 8.13C58.3259 7.78333 58.2326 7.50333 58.0459 7.29C57.8592 7.07 57.5826 6.96 57.2159 6.96C56.8759 6.96 56.5692 7.07 56.2959 7.29C56.0226 7.51 55.8259 7.79 55.7059 8.13H58.3259ZM65.8087 2.32L64.4387 11H63.5387L63.6587 10.27H63.6387C63.392 10.5567 63.1187 10.7767 62.8187 10.93C62.5254 11.0833 62.2187 11.16 61.8987 11.16C61.3254 11.16 60.8687 10.98 60.5287 10.62C60.1954 10.26 60.0287 9.77 60.0287 9.15C60.0287 8.62333 60.1454 8.13333 60.3787 7.68C60.6187 7.22667 60.942 6.86333 61.3487 6.59C61.762 6.31667 62.1954 6.18 62.6487 6.18C63.3287 6.18 63.8254 6.48667 64.1387 7.1H64.1587L64.9087 2.32H65.8087ZM62.6987 6.98C62.3987 6.98 62.112 7.07 61.8387 7.25C61.572 7.42333 61.3554 7.67 61.1887 7.99C61.022 8.30333 60.9387 8.63333 60.9387 8.98C60.9387 9.4 61.0487 9.73667 61.2687 9.99C61.4887 10.2367 61.7887 10.36 62.1687 10.36C62.682 10.36 63.112 10.1567 63.4587 9.75C63.812 9.34333 63.9887 8.87 63.9887 8.33C63.9887 7.91 63.872 7.58 63.6387 7.34C63.412 7.1 63.0987 6.98 62.6987 6.98ZM71.696 2.32L70.946 7.1H70.966C71.486 6.48667 72.076 6.18 72.736 6.18C73.2826 6.18 73.726 6.36667 74.066 6.74C74.4126 7.11333 74.586 7.6 74.586 8.2C74.586 8.69333 74.4693 9.17333 74.236 9.64C74.0026 10.1 73.6793 10.47 73.266 10.75C72.8593 11.0233 72.406 11.16 71.906 11.16C71.5726 11.16 71.2826 11.08 71.036 10.92C70.7893 10.7533 70.5993 10.5367 70.466 10.27H70.446L70.326 11H69.426L70.796 2.32H71.696ZM72.386 6.98C72.086 6.98 71.7993 7.07 71.526 7.25C71.2593 7.42333 71.0426 7.67 70.876 7.99C70.7093 8.30333 70.626 8.63333 70.626 8.98C70.626 9.4 70.736 9.73667 70.956 9.99C71.176 10.2367 71.476 10.36 71.856 10.36C72.3693 10.36 72.7993 10.1567 73.146 9.75C73.4993 9.34333 73.676 8.87 73.676 8.33C73.676 7.91 73.5593 7.58 73.326 7.34C73.0926 7.1 72.7793 6.98 72.386 6.98ZM76.5926 6.32L77.7026 9.29L79.6426 6.32H80.6526L75.7026 13.68H74.6826L77.0726 10.2L75.5426 6.32H76.5926Z" fill="white"/>
</svg>
