<?xml version="1.0" encoding="UTF-8"?>
<svg width="81px" height="28px" viewBox="0 0 81 28" version="1.1" xmlns="http://www.w3.org/2000/svg" xmlns:xlink="http://www.w3.org/1999/xlink">
    <!-- Generator: Sketch 52.4 (67378) - http://www.bohemiancoding.com/sketch -->
    <title>power by 4Gifters logo white (1)</title>
    <desc>Created with Sketch.</desc>
    <g id="Page-1" stroke="none" stroke-width="1" fill="none" fill-rule="evenodd">
        <g id="power-by-4Gifters-logo-white-(1)" fill="#000000">
            <polygon id="Path" points="5.68566 17.2934462 0.599877 23.6943538 0.599877 19.9029385 0 19.9029385 0 17.2934462"></polygon>
            <polygon id="Path" points="10.6309 17.2934462 10.6309 19.9029385 10.0486 19.9029385 10.0486 23.7511077 6.8385 23.7511077 6.8385 17.2934462"></polygon>
            <polygon id="Path" points="5.26438 25.4530769 0.599976 25.4530769 0.599976 27.5930308 5.26438 27.5930308"></polygon>
            <polygon id="Path" points="10.0486 25.4530769 6.8385 25.4530769 6.8385 27.5930308 10.0486 27.5930308"></polygon>
            <polygon id="Path" points="2.60474 23.7512154 5.2676 20.4104923 5.2676 23.7512154"></polygon>
            <polygon id="Path" points="9.07172 15.9508462 6.23328 16.9436615 4.42487 16.9436615 1.58643 15.9508462 1.86149 14 4.81406 16.1430769 4.94574 15.8688923 5.72119 15.8688923 5.84994 16.1399538 8.79665 14"></polygon>
            <path d="M22.6124,23.051 C22.5966,21.8508769 23.0282,20.6939385 23.8107,19.8392923 C24.5932,18.9845385 25.6612,18.5034769 26.7756,18.5035846 C27.926,18.4452154 29.0519,18.8737231 29.9128,19.6975692 L29.0047,20.8662462 C28.3881,20.2381846 27.565,19.9000308 26.7167,19.9262 C25.9845,19.9592615 25.2945,20.3045231 24.799,20.8858462 C24.3034,21.4672769 24.0429,22.2371692 24.0748,23.0256923 C24.032,23.8409231 24.3066,24.6386 24.8326,25.2268154 C25.3585,25.8149231 26.0883,26.1404769 26.8464,26.1250769 C27.5512,26.1343385 28.2407,25.9031231 28.816,25.4644923 L28.816,23.8132462 L26.7284,23.8132462 L26.7284,22.5174923 L30.2077,22.5174923 L30.2077,26.2139231 C29.2619,27.0982923 28.0517,27.5854923 26.7992,27.5858154 C25.6728,27.6293231 24.5805,27.1646308 23.7857,26.3038462 C22.9909,25.4429538 22.5656,24.2640462 22.6124,23.051 Z" id="Path"></path>
            <polygon id="Path" points="33.321 18.6306615 34.7599 18.6306615 34.7599 27.3953077 33.321 27.3953077"></polygon>
            <polygon id="Path" points="38.0963 18.6306615 44.1702 18.6306615 44.1702 20.0405692 39.5352 20.0405692 39.5352 22.4413538 43.6512 22.4413538 43.6512 23.8386615 39.5352 23.8386615 39.5352 27.3953077 38.0963 27.3953077"></polygon>
            <polygon id="Path" points="48.9234 20.0659846 46.3287 20.0659846 46.3287 18.6306615 52.9569 18.6306615 52.9569 20.0659846 50.3623 20.0659846 50.3623 27.3953077 48.9234 27.3953077"></polygon>
            <polygon id="Path" points="55.6354 18.6306615 61.6857 18.6306615 61.6857 20.0151538 57.0742 20.0151538 57.0742 22.3143846 61.1667 22.3143846 61.1667 23.6988769 57.0742 23.6988769 57.0742 26.0615385 61.7918 26.0615385 61.7918 27.3953077 55.6354 27.3953077"></polygon>
            <path d="M64.6218,18.6306615 L68.2544,18.6306615 C69.117,18.578 69.9642,18.8927846 70.6131,19.5071692 C71.0608,20.0175231 71.3025,20.6980308 71.2854,21.3997538 C71.3235,22.6753692 70.5095,23.7979538 69.3512,24.0672923 L71.5567,27.3953077 L69.8583,27.3953077 L67.8534,24.3340462 L66.0489,24.3340462 L66.0489,27.3953077 L64.6218,27.3953077 L64.6218,18.6306615 Z M68.16,22.9875692 C69.1861,22.9875692 69.8347,22.4160462 69.8347,21.5141231 C69.8347,20.5741846 69.2097,20.0533846 68.1482,20.0533846 L66.0489,20.0533846 L66.0489,23.0002769 L68.16,22.9875692 Z" id="Shape" fill-rule="nonzero"></path>
            <path d="M73.6666,26.1249692 L74.5276,25.0198308 C75.2218,25.7414769 76.1457,26.1503846 77.1104,26.1630923 C77.995,26.1630923 78.5611,25.7057231 78.5611,25.0579538 C78.5611,24.4354923 78.2309,24.0926 76.7213,23.7114769 C74.9875,23.2542154 74.0086,22.708 74.0086,21.0820615 C74.0432,20.3385538 74.362,19.6437231 74.8893,19.1624462 C75.4166,18.6810615 76.1054,18.4564154 76.792,18.5416 C77.8694,18.5188769 78.919,18.9107692 79.7523,19.6467385 L78.9857,20.8153077 C78.3583,20.2612308 77.5793,19.9444 76.7684,19.9134923 C75.9311,19.9134923 75.4357,20.3834615 75.4357,20.9550923 C75.4357,21.6282769 75.8131,21.9331538 77.3817,22.3395846 C78.9503,22.7461231 80,23.4574308 80,24.8801538 C80,26.5314 78.8206,27.5094615 77.0869,27.5094615 C75.8258,27.5266923 74.605,27.0323846 73.6666,26.1249692 Z" id="Path"></path>
            <path d="M17.5283,25.4644923 L13.4477,25.4644923 L13.1764,24.3721692 L17.6817,18.6306615 L18.8611,18.6306615 L18.8611,24.2069692 L20.0405,24.2069692 L20.0405,25.4772 L18.8611,25.4772 L18.8611,27.3953077 L17.5283,27.3953077 L17.5283,25.4644923 Z M17.5283,24.1942615 L17.5283,20.7519846 L14.8629,24.2069692 L17.5283,24.1942615 Z" id="Shape" fill-rule="nonzero"></path>
            <path d="M29.2836,1.57230769 C30.1903,1.57230769 30.8603,1.71949077 31.2936,2.01384615 C31.7336,2.30820154 31.9536,2.77127846 31.9536,3.40307692 C31.9536,4.02050923 31.8303,4.54102923 31.5836,4.96461538 C31.3436,5.38102923 30.9936,5.70769231 30.5336,5.94461538 C30.0803,6.17435538 29.537,6.28923077 28.9036,6.28923077 L28.3836,6.28923077 L27.8836,9.69230769 L26.9436,9.69230769 L28.1336,1.57230769 L29.2836,1.57230769 Z M28.5136,5.38461538 L28.8636,5.38461538 C29.5836,5.38461538 30.127,5.23743231 30.4936,4.94307692 C30.867,4.64153846 31.0536,4.18564462 31.0536,3.57538462 C31.0536,3.20923077 30.9036,2.93641385 30.6036,2.75692308 C30.3036,2.57026 29.8336,2.47692308 29.1936,2.47692308 L28.9436,2.47692308 L28.5136,5.38461538 Z M31.7949,7.62461538 C31.7949,7.08615385 31.9282,6.57641385 32.1949,6.09538462 C32.4615,5.60718308 32.8215,5.21949077 33.2749,4.93230769 C33.7282,4.64512462 34.2082,4.50153846 34.7149,4.50153846 C35.3349,4.50153846 35.8449,4.70974 36.2449,5.12615385 C36.6515,5.54256769 36.8549,6.08102923 36.8549,6.74153846 C36.8549,7.28718308 36.7215,7.80050923 36.4549,8.28153846 C36.1882,8.7626 35.8249,9.14663077 35.3649,9.43384615 C34.9115,9.72106154 34.4315,9.86461538 33.9249,9.86461538 C33.3115,9.86461538 32.8015,9.66 32.3949,9.25076923 C31.9949,8.83432308 31.7949,8.29230769 31.7949,7.62461538 Z M34.5749,5.42769231 C34.2615,5.42769231 33.9582,5.52461538 33.6649,5.71846154 C33.3715,5.91230769 33.1382,6.16718308 32.9649,6.48307692 C32.7915,6.79897077 32.7049,7.12564462 32.7049,7.46307692 C32.7049,7.87949077 32.8315,8.23127846 33.0849,8.51846154 C33.3449,8.79846154 33.6715,8.93846154 34.0649,8.93846154 C34.3715,8.93846154 34.6682,8.84875385 34.9549,8.66923077 C35.2482,8.48974 35.4849,8.23846154 35.6649,7.91538462 C35.8515,7.58512462 35.9449,7.24769231 35.9449,6.90307692 C35.9449,6.47230769 35.8149,6.12050923 35.5549,5.84769231 C35.3015,5.56769231 34.9749,5.42769231 34.5749,5.42769231 Z M41.5353,4.37230769 L42.3953,7.86153846 L44.2253,4.65230769 L45.2453,4.65230769 L42.0953,9.86461538 L41.2253,6.49384615 L39.3453,9.86461538 L37.7353,4.65230769 L38.7553,4.65230769 L39.6453,7.86153846 L41.5353,4.37230769 Z M49.913,7.33384615 L46.343,7.33384615 C46.3297,7.49179846 46.323,7.59949077 46.323,7.65692308 C46.323,8.04461538 46.4297,8.36769231 46.643,8.62615385 C46.863,8.8774 47.1497,9.00307692 47.503,9.00307692 C47.843,9.00307692 48.133,8.91692308 48.373,8.74461538 C48.6197,8.56512462 48.8463,8.32461538 49.053,8.02307692 L49.743,8.48615385 C49.4563,8.92413846 49.103,9.26509231 48.683,9.50923077 C48.263,9.74615385 47.823,9.86461538 47.363,9.86461538 C46.7763,9.86461538 46.303,9.67432308 45.943,9.29384615 C45.5897,8.90615385 45.413,8.38204769 45.413,7.72153846 C45.413,7.21897077 45.513,6.72 45.713,6.22461538 C45.913,5.72923077 46.2197,5.32 46.633,4.99692308 C47.0463,4.66666308 47.5463,4.50153846 48.133,4.50153846 C48.7197,4.50153846 49.173,4.68461538 49.493,5.05076923 C49.8197,5.40974 49.983,5.91949077 49.983,6.58 C49.983,6.65897077 49.9763,6.75949077 49.963,6.88153846 C49.9563,7.00358615 49.9397,7.15435538 49.913,7.33384615 Z M49.113,6.60153846 C49.113,6.22820154 49.0197,5.92666308 48.833,5.69692308 C48.6463,5.46 48.3697,5.34153846 48.003,5.34153846 C47.663,5.34153846 47.3563,5.46 47.083,5.69692308 C46.8097,5.93384615 46.613,6.23538462 46.493,6.60153846 L49.113,6.60153846 Z M54.0358,5.63230769 C53.9558,5.55333692 53.8725,5.49949077 53.7858,5.47076923 C53.7058,5.44204769 53.6158,5.42769231 53.5158,5.42769231 C53.1425,5.42769231 52.8425,5.57487538 52.6158,5.86923077 C52.3958,6.16358615 52.2458,6.59076923 52.1658,7.15076923 L51.7958,9.69230769 L50.8958,9.69230769 L51.6358,4.65230769 L52.5358,4.65230769 L52.4158,5.47076923 L52.4458,5.47076923 C52.5925,5.18358615 52.7892,4.95026 53.0358,4.77076923 C53.2892,4.59127846 53.5658,4.50153846 53.8658,4.50153846 C54.0125,4.50153846 54.1458,4.52666308 54.2658,4.57692308 C54.3925,4.62718308 54.4958,4.68461538 54.5758,4.74923077 L54.0358,5.63230769 Z M59.1259,7.33384615 L55.5559,7.33384615 C55.5426,7.49179846 55.5359,7.59949077 55.5359,7.65692308 C55.5359,8.04461538 55.6426,8.36769231 55.8559,8.62615385 C56.0759,8.8774 56.3626,9.00307692 56.7159,9.00307692 C57.0559,9.00307692 57.3459,8.91692308 57.5859,8.74461538 C57.8326,8.56512462 58.0592,8.32461538 58.2659,8.02307692 L58.9559,8.48615385 C58.6692,8.92413846 58.3159,9.26509231 57.8959,9.50923077 C57.4759,9.74615385 57.0359,9.86461538 56.5759,9.86461538 C55.9892,9.86461538 55.5159,9.67432308 55.1559,9.29384615 C54.8026,8.90615385 54.6259,8.38204769 54.6259,7.72153846 C54.6259,7.21897077 54.7259,6.72 54.9259,6.22461538 C55.1259,5.72923077 55.4326,5.32 55.8459,4.99692308 C56.2592,4.66666308 56.7592,4.50153846 57.3459,4.50153846 C57.9326,4.50153846 58.3859,4.68461538 58.7059,5.05076923 C59.0326,5.40974 59.1959,5.91949077 59.1959,6.58 C59.1959,6.65897077 59.1892,6.75949077 59.1759,6.88153846 C59.1692,7.00358615 59.1526,7.15435538 59.1259,7.33384615 Z M58.3259,6.60153846 C58.3259,6.22820154 58.2326,5.92666308 58.0459,5.69692308 C57.8592,5.46 57.5826,5.34153846 57.2159,5.34153846 C56.8759,5.34153846 56.5692,5.46 56.2959,5.69692308 C56.0226,5.93384615 55.8259,6.23538462 55.7059,6.60153846 L58.3259,6.60153846 Z M65.8087,0.344615385 L64.4387,9.69230769 L63.5387,9.69230769 L63.6587,8.90615385 L63.6387,8.90615385 C63.392,9.21490769 63.1187,9.45183077 62.8187,9.61692308 C62.5254,9.78201538 62.2187,9.86461538 61.8987,9.86461538 C61.3254,9.86461538 60.8687,9.67076923 60.5287,9.28307692 C60.1954,8.89538462 60.0287,8.36769231 60.0287,7.7 C60.0287,7.13281692 60.1454,6.60512462 60.3787,6.11692308 C60.6187,5.62872154 60.942,5.23743231 61.3487,4.94307692 C61.762,4.64872154 62.1954,4.50153846 62.6487,4.50153846 C63.3287,4.50153846 63.8254,4.83179846 64.1387,5.49230769 L64.1587,5.49230769 L64.9087,0.344615385 L65.8087,0.344615385 Z M62.6987,5.36307692 C62.3987,5.36307692 62.112,5.46 61.8387,5.65384615 C61.572,5.84050923 61.3554,6.10615385 61.1887,6.45076923 C61.022,6.78820154 60.9387,7.14358615 60.9387,7.51692308 C60.9387,7.96923077 61.0487,8.33179846 61.2687,8.60461538 C61.4887,8.87029231 61.7887,9.00307692 62.1687,9.00307692 C62.682,9.00307692 63.112,8.78413846 63.4587,8.34615385 C63.812,7.90820154 63.9887,7.39846154 63.9887,6.81692308 C63.9887,6.36461538 63.872,6.00923077 63.6387,5.75076923 C63.412,5.49230769 63.0987,5.36307692 62.6987,5.36307692 Z M71.696,0.344615385 L70.946,5.49230769 L70.966,5.49230769 C71.486,4.83179846 72.076,4.50153846 72.736,4.50153846 C73.2826,4.50153846 73.726,4.70256769 74.066,5.10461538 C74.4126,5.50666308 74.586,6.03076923 74.586,6.67692308 C74.586,7.20820154 74.4693,7.72512462 74.236,8.22769231 C74.0026,8.72307692 73.6793,9.12153846 73.266,9.42307692 C72.8593,9.7174 72.406,9.86461538 71.906,9.86461538 C71.5726,9.86461538 71.2826,9.77846154 71.036,9.60615385 C70.7893,9.42663077 70.5993,9.19336923 70.466,8.90615385 L70.446,8.90615385 L70.326,9.69230769 L69.426,9.69230769 L70.796,0.344615385 L71.696,0.344615385 Z M72.386,5.36307692 C72.086,5.36307692 71.7993,5.46 71.526,5.65384615 C71.2593,5.84050923 71.0426,6.10615385 70.876,6.45076923 C70.7093,6.78820154 70.626,7.14358615 70.626,7.51692308 C70.626,7.96923077 70.736,8.33179846 70.956,8.60461538 C71.176,8.87029231 71.476,9.00307692 71.856,9.00307692 C72.3693,9.00307692 72.7993,8.78413846 73.146,8.34615385 C73.4993,7.90820154 73.676,7.39846154 73.676,6.81692308 C73.676,6.36461538 73.5593,6.00923077 73.326,5.75076923 C73.0926,5.49230769 72.7793,5.36307692 72.386,5.36307692 Z M76.5926,4.65230769 L77.7026,7.85076923 L79.6426,4.65230769 L80.6526,4.65230769 L75.7026,12.5784615 L74.6826,12.5784615 L77.0726,8.83076923 L75.5426,4.65230769 L76.5926,4.65230769 Z" id="Shape" fill-rule="nonzero"></path>
        </g>
    </g>
</svg>